<svg id="visual" viewBox="0 0 900 600" width="900" height="600" xmlns="http://www.w3.org/2000/svg" xmlns:xlink="http://www.w3.org/1999/xlink" version="1.1"><path d="M818 600L819.5 590.8C821 581.7 824 563.3 812 545.2C800 527 773 509 759.5 490.8C746 472.7 746 454.3 753.5 436.2C761 418 776 400 791 381.8C806 363.7 821 345.3 825.5 327.2C830 309 824 291 809 272.8C794 254.7 770 236.3 761 218.2C752 200 758 182 771.5 163.8C785 145.7 806 127.3 816.5 109.2C827 91 827 73 819.5 54.8C812 36.7 797 18.3 789.5 9.2L782 0L900 0L900 9.2C900 18.3 900 36.7 900 54.8C900 73 900 91 900 109.2C900 127.3 900 145.7 900 163.8C900 182 900 200 900 218.2C900 236.3 900 254.7 900 272.8C900 291 900 309 900 327.2C900 345.3 900 363.7 900 381.8C900 400 900 418 900 436.2C900 454.3 900 472.7 900 490.8C900 509 900 527 900 545.2C900 563.3 900 581.7 900 590.8L900 600Z" fill="#000098"></path><path d="M710 600L707 590.8C704 581.7 698 563.3 690.5 545.2C683 527 674 509 671 490.8C668 472.7 671 454.3 671 436.2C671 418 668 400 678.5 381.8C689 363.7 713 345.3 722 327.2C731 309 725 291 710 272.8C695 254.7 671 236.3 663.5 218.2C656 200 665 182 680 163.8C695 145.7 716 127.3 728 109.2C740 91 743 73 740 54.8C737 36.7 728 18.3 723.5 9.2L719 0L783 0L790.5 9.2C798 18.3 813 36.7 820.5 54.8C828 73 828 91 817.5 109.2C807 127.3 786 145.7 772.5 163.8C759 182 753 200 762 218.2C771 236.3 795 254.7 810 272.8C825 291 831 309 826.5 327.2C822 345.3 807 363.7 792 381.8C777 400 762 418 754.5 436.2C747 454.3 747 472.7 760.5 490.8C774 509 801 527 813 545.2C825 563.3 822 581.7 820.5 590.8L819 600Z" fill="#4902cb"></path><path d="M638 600L626 590.8C614 581.7 590 563.3 575 545.2C560 527 554 509 554 490.8C554 472.7 560 454.3 567.5 436.2C575 418 584 400 597.5 381.8C611 363.7 629 345.3 632 327.2C635 309 623 291 606.5 272.8C590 254.7 569 236.3 563 218.2C557 200 566 182 585.5 163.8C605 145.7 635 127.3 645.5 109.2C656 91 647 73 644 54.8C641 36.7 644 18.3 645.5 9.2L647 0L720 0L724.5 9.2C729 18.3 738 36.7 741 54.8C744 73 741 91 729 109.2C717 127.3 696 145.7 681 163.8C666 182 657 200 664.5 218.2C672 236.3 696 254.7 711 272.8C726 291 732 309 723 327.2C714 345.3 690 363.7 679.5 381.8C669 400 672 418 672 436.2C672 454.3 669 472.7 672 490.8C675 509 684 527 691.5 545.2C699 563.3 705 581.7 708 590.8L711 600Z" fill="#8000ff"></path><path d="M242 600L246.5 590.8C251 581.7 260 563.3 278 545.2C296 527 323 509 333.5 490.8C344 472.7 338 454.3 360.5 436.2C383 418 434 400 462.5 381.8C491 363.7 497 345.3 482 327.2C467 309 431 291 393.5 272.8C356 254.7 317 236.3 315.5 218.2C314 200 350 182 389 163.8C428 145.7 470 127.3 447.5 109.2C425 91 338 73 332 54.8C326 36.7 401 18.3 438.5 9.2L476 0L648 0L646.5 9.2C645 18.3 642 36.7 645 54.8C648 73 657 91 646.5 109.2C636 127.3 606 145.7 586.5 163.8C567 182 558 200 564 218.2C570 236.3 591 254.7 607.5 272.8C624 291 636 309 633 327.2C630 345.3 612 363.7 598.5 381.8C585 400 576 418 568.5 436.2C561 454.3 555 472.7 555 490.8C555 509 561 527 576 545.2C591 563.3 615 581.7 627 590.8L639 600Z" fill="#8000ff"></path><path d="M116 600L110 590.8C104 581.7 92 563.3 86 545.2C80 527 80 509 93.5 490.8C107 472.7 134 454.3 153.5 436.2C173 418 185 400 197 381.8C209 363.7 221 345.3 213.5 327.2C206 309 179 291 158 272.8C137 254.7 122 236.3 125 218.2C128 200 149 182 159.5 163.8C170 145.7 170 127.3 156.5 109.2C143 91 116 73 104 54.8C92 36.7 95 18.3 96.5 9.2L98 0L477 0L439.5 9.2C402 18.3 327 36.7 333 54.8C339 73 426 91 448.5 109.2C471 127.3 429 145.7 390 163.8C351 182 315 200 316.5 218.2C318 236.3 357 254.7 394.5 272.8C432 291 468 309 483 327.2C498 345.3 492 363.7 463.5 381.8C435 400 384 418 361.5 436.2C339 454.3 345 472.7 334.5 490.8C324 509 297 527 279 545.2C261 563.3 252 581.7 247.5 590.8L243 600Z" fill="#4902cb"></path><path d="M0 600L0 590.8C0 581.7 0 563.3 0 545.2C0 527 0 509 0 490.8C0 472.7 0 454.3 0 436.2C0 418 0 400 0 381.8C0 363.7 0 345.3 0 327.2C0 309 0 291 0 272.8C0 254.7 0 236.3 0 218.2C0 200 0 182 0 163.8C0 145.7 0 127.3 0 109.2C0 91 0 73 0 54.8C0 36.7 0 18.3 0 9.2L0 0L99 0L97.5 9.2C96 18.3 93 36.7 105 54.8C117 73 144 91 157.5 109.2C171 127.3 171 145.7 160.5 163.8C150 182 129 200 126 218.2C123 236.3 138 254.7 159 272.8C180 291 207 309 214.5 327.2C222 345.3 210 363.7 198 381.8C186 400 174 418 154.5 436.2C135 454.3 108 472.7 94.5 490.8C81 509 81 527 87 545.2C93 563.3 105 581.7 111 590.8L117 600Z" fill="#000098"></path></svg>